<!-- Created with Inkscape (http://www.inkscape.org/) -->
<svg xmlns:rdf="http://www.w3.org/1999/02/22-rdf-syntax-ns#" xmlns="http://www.w3.org/2000/svg" height="477" width="422" version="1.1" xmlns:cc="http://creativecommons.org/ns#" xmlns:xlink="http://www.w3.org/1999/xlink" xmlns:dc="http://purl.org/dc/elements/1.1/">
 <defs></defs>
 <metadata>
  <rdf:RDF>
   <cc:Work rdf:about="">
    <dc:format>image/svg+xml</dc:format>
    <dc:type rdf:resource="http://purl.org/dc/dcmitype/StillImage"/>
    <dc:title/>
   </cc:Work>
  </rdf:RDF>
 </metadata>
 <g transform="translate(16,-1)">
  <path d="m-10,7,410,0c-10.5,15.75-10,44.25-10,60v195c0,136.5-90.25,210-190,210s-200-73.5-200-210v-200c0-15.75,0.5-39.25-10-55z" stroke="#000" stroke-miterlimit="4" stroke-dasharray="none" stroke-width="6" fill="#da121a"/>
  <path stroke-linejoin="miter" d="M32.88,128.7,66.468,77.788,101.82,129.05z" stroke="#000" stroke-linecap="butt" stroke-miterlimit="4" stroke-dasharray="none" stroke-width="3" fill="#fcdd09"/>
  <path stroke-linejoin="round" d="m149.12,85.75,19.75,0l27.35-36.953,26.03,36.828,17.75-0.125-16,43.5-28-37-29.59,36.65z" stroke="#000" stroke-linecap="round" stroke-miterlimit="4" stroke-dasharray="none" stroke-width="3" fill="#fcdd09"/>
  <path stroke-linejoin="round" d="m25,122,13-3,0,7,14-2,0-7,10,0,1,7,13,0,0-7,13,2,0,7,9.5,1.5,0.5-7.5,10,2,0,17-4-1,0,8,0,166-75-25,0-149-5,1z" stroke="#000" stroke-linecap="round" stroke-miterlimit="4" stroke-dasharray="none" stroke-width="3" fill="#FFF"/>
  <path stroke-linejoin="round" d="m137,328,1-195-7-4,18-43,17.545,45.05l29.46-38.05,27.45,36.05,16.55-43.05,21,45-7,3-1,194z" stroke="#000" stroke-linecap="round" stroke-miterlimit="4" stroke-dasharray="none" stroke-width="3" fill="#FFF"/>
  <path stroke-linejoin="miter" d="M358.62,127.89,325.03,76.979,289.68,128.24z" stroke="#000" stroke-linecap="butt" stroke-miterlimit="4" stroke-dasharray="none" stroke-width="3" fill="#fcdd09"/>
  <path stroke-linejoin="round" d="m366.5,121.19-13-3-0.25,7-13.75-2,0-7-10,0-1,7-13,0,0-7-13,2,0,7-10,1.25,0-7.25-10,2,0,17,4-1,0,8,0,166,75-25,0-149,5,1z" stroke="#000" stroke-linecap="round" stroke-miterlimit="4" stroke-dasharray="none" stroke-width="3" fill="#FFF"/>
  <path stroke-linejoin="round" d="m0,246,14,7,0,13,14,7,0-14,15,9,0,13,13,6,0-13,17,9,0,13,12,7,0-13,20,9,10,0,0,11,14,0,0-11,22,0,0,11,18,0,0,10,5,0,0,8,11,0,0-8,21,0,0,8,11,0,0-8,4,0,0-10,18,0,0-11,23,0,0,12,13,0,0-12,12,0,19-9,0,12,14-7,0-11,15-8,0,12,13-7,0-10,15-8,0,11,14-8,0-11,13-7c5,90-30,149-95,199-70,30-125,30-190,0-81.507-52.13-108.68-122.25-105-201z" stroke="#000" stroke-linecap="round" stroke-miterlimit="4" stroke-dasharray="none" stroke-width="3" fill="#FFF"/>
  <path stroke-linejoin="round" d="m153.44,80.926c0,2.0258-1.7016,3.6681-3.8007,3.6681s-3.8007-1.6423-3.8007-3.6681,1.7016-3.6681,3.8007-3.6681,3.8007,1.6423,3.8007,3.6681z" transform="matrix(1.1531976,0,0,1.1948795,-23.414296,-15.456666)" stroke-dashoffset="0" stroke="#000" stroke-linecap="round" stroke-miterlimit="4" stroke-dasharray="none" stroke-width="1.70379007" fill="#fcdd09"/>
  <path stroke-linejoin="round" d="m153.44,80.926c0,2.0258-1.7016,3.6681-3.8007,3.6681s-3.8007-1.6423-3.8007-3.6681,1.7016-3.6681,3.8007-3.6681,3.8007,1.6423,3.8007,3.6681z" transform="matrix(1.1531976,0,0,1.1948795,23.183817,-51.696528)" stroke-dashoffset="0" stroke="#000" stroke-linecap="round" stroke-miterlimit="4" stroke-dasharray="none" stroke-width="1.70379007" fill="#fcdd09"/>
  <path stroke-linejoin="round" d="m153.44,80.926c0,2.0258-1.7016,3.6681-3.8007,3.6681s-3.8007-1.6423-3.8007-3.6681,1.7016-3.6681,3.8007-3.6681,3.8007,1.6423,3.8007,3.6681z" transform="matrix(1.1531976,0,0,1.1948795,67.058816,-15.821528)" stroke-dashoffset="0" stroke="#000" stroke-linecap="round" stroke-miterlimit="4" stroke-dasharray="none" stroke-width="1.70379007" fill="#fcdd09"/>
  <path stroke-linejoin="round" d="m153.44,80.926c0,2.0258-1.7016,3.6681-3.8007,3.6681s-3.8007-1.6423-3.8007-3.6681,1.7016-3.6681,3.8007-3.6681,3.8007,1.6423,3.8007,3.6681z" transform="matrix(1.1531976,0,0,1.1948795,23.433817,-9.6965287)" stroke-dashoffset="0" stroke="#000" stroke-linecap="round" stroke-miterlimit="4" stroke-dasharray="none" stroke-width="1.70379007" fill="#fcdd09"/>
  <path stroke-linejoin="round" d="m153.44,80.926c0,2.0258-1.7016,3.6681-3.8007,3.6681s-3.8007-1.6423-3.8007-3.6681,1.7016-3.6681,3.8007-3.6681,3.8007,1.6423,3.8007,3.6681z" transform="matrix(1.1531976,0,0,1.1948795,-106.3894,-20.842975)" stroke-dashoffset="0" stroke="#000" stroke-linecap="round" stroke-miterlimit="4" stroke-dasharray="none" stroke-width="1.70379007" fill="#fcdd09"/>
  <path stroke-linejoin="round" d="m52,162,5,0,0-14" stroke="#000" stroke-linecap="round" stroke-miterlimit="4" stroke-dasharray="none" stroke-width="2" fill="none"/>
  <path stroke-linejoin="round" d="m56,148.38-5,0,0,12.625" stroke="#000" stroke-linecap="round" stroke-miterlimit="4" stroke-dasharray="none" stroke-width="4" fill="none"/>
  <path stroke-linejoin="round" d="m78.25,162.12,5,0,0-14" stroke="#000" stroke-linecap="round" stroke-miterlimit="4" stroke-dasharray="none" stroke-width="2" fill="none"/>
  <path stroke-linejoin="round" d="m82.25,148.5-5,0,0,12.625" stroke="#000" stroke-linecap="round" stroke-miterlimit="4" stroke-dasharray="none" stroke-width="4" fill="none"/>
  <path stroke-linejoin="round" d="m64.729,220.43,4.4453,0,0-16.262" stroke="#000" stroke-linecap="round" stroke-miterlimit="4" stroke-dasharray="none" stroke-width="2.03243184" fill="none"/>
  <path stroke-linejoin="round" d="m68.285,204.6-4.4453,0,0,14.665" stroke="#000" stroke-linecap="round" stroke-miterlimit="4" stroke-dasharray="none" stroke-width="4.06486368" fill="none"/>
  <path stroke-linejoin="round" d="m204.93,304.66,5.75,0,0-14" stroke="#000" stroke-linecap="round" stroke-miterlimit="4" stroke-dasharray="none" stroke-width="2" fill="none"/>
  <path stroke-linejoin="round" d="m209.62,289.86-4.8782,0,0,13.741" stroke="#000" stroke-linecap="round" stroke-miterlimit="4" stroke-dasharray="none" stroke-width="4.1218338" fill="none"/>
  <path stroke-linejoin="round" d="m181.9,304.75,5.625,0,0-14" stroke="#000" stroke-linecap="round" stroke-miterlimit="4" stroke-dasharray="none" stroke-width="2" fill="none"/>
  <path stroke-linejoin="round" d="m186.46,289.94-4.8782,0,0,13.741" stroke="#000" stroke-linecap="round" stroke-miterlimit="4" stroke-dasharray="none" stroke-width="4.1218338" fill="none"/>
  <path stroke-linejoin="round" d="m194.2,138.67,4.7495,0,0-13.394" stroke="#000" stroke-linecap="round" stroke-miterlimit="4" stroke-dasharray="none" stroke-width="1.9065845" fill="none"/>
  <path stroke-linejoin="round" d="m198,125.64-4.7495,0,0,12.078" stroke="#000" stroke-linecap="round" stroke-miterlimit="4" stroke-dasharray="none" stroke-width="3.813169" fill="none"/>
  <path stroke-linejoin="round" d="m153.03,179.86-5.6481,1.2309,0.0911-16.097m45.527,9.1005,6.9302,0-0.125-16.767m-17.971,71.193,6.1288,0,0-18.897m-39.951,23.073-5.4775,1.4142,0.0884-18.494m16.349,14.403-5.2123,1.5026,0.0884-18.494m83.583-34.093,5.6481,1.2309-0.0911-16.097m-0.32447,68.495,5.4775,1.4142-0.0884-18.494m-16.349,14.403,5.2123,1.5026-0.0884-18.494m-29.029,15.953,6.1288,0,0-18.897" stroke="#000" stroke-linecap="round" stroke-miterlimit="4" stroke-dasharray="none" stroke-width="2.5" fill="none"/>
  <path stroke-linejoin="round" d="m148.6,164.5,4.5544-1.2309,0,15.508m45.513-20.64-6.3052,0,0.125,15.157m-5.752,36.83-6.1288,0,0,17.541m-36.89-12.618,4.4168-1.4142,0,17.818m6.8969-19.082,4.3284-1.3258,0,17.818m82.498-65.29-4.5544-1.2309,0,15.508m9.6532,37.065-4.4168-1.4142,0,17.818m-6.8969-19.082-4.3284-1.3258,0,17.818m-18.614-18.279-6.1288,0,0.125,17.416" stroke="#000" stroke-linecap="round" stroke-miterlimit="4" stroke-dasharray="none" stroke-width="4.30000019" fill="none"/>
  <path stroke-linejoin="round" d="m237.8,140.62,5.9657,1.046,0.0328-10.66" stroke="#000" stroke-linecap="round" stroke-miterlimit="4" stroke-dasharray="none" stroke-width="1.69263208" fill="none"/>
  <path stroke-linejoin="round" d="m242.91,130.69-4.6089-0.79602,0,10.029" stroke="#000" stroke-linecap="round" stroke-miterlimit="4" stroke-dasharray="none" stroke-width="3.38526416" fill="none"/>
  <path stroke-linejoin="round" d="m153.16,141.51-5.0907,0.79602-0.1578-11.16" stroke="#000" stroke-linecap="round" stroke-miterlimit="4" stroke-dasharray="none" stroke-width="1.69263208" fill="none"/>
  <path stroke-linejoin="round" d="m148.68,131.58,4.6089-0.79602,0,9.4044" stroke="#000" stroke-linecap="round" stroke-miterlimit="4" stroke-dasharray="none" stroke-width="3.38526416" fill="none"/>
  <path stroke-linejoin="round" d="m153.44,80.926c0,2.0258-1.7016,3.6681-3.8007,3.6681s-3.8007-1.6423-3.8007-3.6681,1.7016-3.6681,3.8007-3.6681,3.8007,1.6423,3.8007,3.6681z" transform="matrix(-1.1531976,0,0,1.1948795,497.18229,-22.00505)" stroke-dashoffset="0" stroke="#000" stroke-linecap="round" stroke-miterlimit="4" stroke-dasharray="none" stroke-width="1.70379007" fill="#fcdd09"/>
  <path stroke-linejoin="round" d="m339.5,161.19-5,0,0-14" stroke="#000" stroke-linecap="round" stroke-miterlimit="4" stroke-dasharray="none" stroke-width="2" fill="none"/>
  <path stroke-linejoin="round" d="m335.5,147.57,5,0,0,12.625" stroke="#000" stroke-linecap="round" stroke-miterlimit="4" stroke-dasharray="none" stroke-width="4" fill="none"/>
  <path stroke-linejoin="round" d="m233.5,368.5,0-9m-15.5-8.5v-11m16-7,0-8m144-38,0-9m-13.5,35.5,0-13m-12.5,0.5v-9m-35,26,0-9m44.625-57.309c-25.362-6.5224-50.303-5.4577-75,0m43.875,100.81,0-5m34.5,0.5v-12m11-12,0-12m-19.5,21.75,0-11m-13.5,22.875v-34.62m18.625-67.309c-25.362-6.5224-50.303-5.4577-75,0m-12.62,88.31v-7m-12,24,0-9m40,3,0-11m37,28,0-11m-23,5,0-11m-41.5,26.5,0-10m12.5,89.5h-21m7-6,0-11m30.5-13.5,0-13m-2-26,0-11m-27,33,0-8m53,13,0-12m20-17,0-13m-32.5,27.5v-12m-158-13,0-9m15-7,0-12m-16-6,0-8m-144-37,0-10m14,34,0-12m12,0,0-8m35,27,0-10m-13,43,0-6m-35,2,0-13m-11-11,0-12m20,21,0-11m13,23,0-35m69,22,0-7m12,24,0-10m-40,3,0-11m-36,29,0-11m22,5,0-12m42,26,0-10m-7,90,18,0m-10-7,0-12m-30-12,0-13m2-26,0-11m27,33,0-8m-53,13,0-12m-20-17,0-13m33,28,0-13m265.46,28.46-54.46,24.54l-21.529,0.10392m97.183-53.335-74.909,34.597-22.627,0m109.89-61.36l-87.427,42h-22m-214.46,12.46,52.89,23.54h23m-97.08-52.231,74.909,34.597,22.627,0m-110.46-61.37l88,41h22m137.87-0.9375-32.5,11.75m32.75-0.75-32.5,11.75m32.25,3.5-32.5,11.75m32.5-1.375-32.5,11.75m-104.87-48.31,32.5,11.76m-32.75-0.75,32.5,11.75m-32.25,3.5,32.5,11.75m-32.5-1.38,32.5,11.75m-152.37-112.88,97.37,49.38h21.875m139.12,0,21.5,0,96.685-49.751m-381.28-19.06,44.097,21.81m11,6,47,23,77.375,0m29.5-0.125l75.12,0.12,100.91-51.68m-26.04-112.5c-25.362-6.5224-50.303-5.4577-75,0m-286.87,93.18l105,53h74.875m31.125,0,76,0,103-53m-28.63-102.68c-25.362-6.5224-50.303-5.4577-75,0m-286.87,88.18,105.5,52.5h69m11,0,21,0m11,0,70,0,102.5-52.5m-28.13-127.06c-25.362-6.5224-50.303-5.4577-75,0m-286.37,121.56l105,53h64m52,0,66,0,103-53m-160-137,3-12,9,1m-9,29-3,4m3-24.25,0,20.25,15,3m5-15-14-14m17,11-14-14-12,11,0,21.875,16.125,3.25l1.88-4.13v-20m-62.875,16,0.875,4,17,0,2-4m6-17-14-20-15,19,0,18,25,0,0-22.375m-29,4.375,19-25,18,25m-72,21,14-3m0-21,0,21,4,4m-24-17,13-15,11,11,0,21-13.25,2.5l-4.75-3.5,0.25-17.37-4.25,4.37,15-17h8m-24.125,76.125,29-8,57,0,29,8m-115.12,7.375,29-8,57,0,29,8m-115.12,59.125,29-8,57,0,29,8m-114.64-9.62l29-8h57l29,8m-223.12,0.5c25.362-6.5224,50.303-5.4577,75,0m-75-8c25.362-6.5224,50.303-5.4577,75,0m-75.25-50.875c25.362-6.5224,50.303-5.4577,75,0m-74.5-9.5c25.362-6.5224,50.303-5.4577,75,0m-75-38.875c25.362-6.5224,50.303-5.4577,75,0" stroke="#000" stroke-linecap="round" stroke-miterlimit="4" stroke-dasharray="none" stroke-width="2" fill="none"/>
  <path d="m51,312,10,5,0,30-10,0z" fill="#000"/>
  <path stroke-linejoin="round" d="m313.25,161.32-5,0,0-14" stroke="#000" stroke-linecap="round" stroke-miterlimit="4" stroke-dasharray="none" stroke-width="2" fill="none"/>
  <path stroke-linejoin="round" d="m234,380c-5-11-17.485-22.343-29-25l7-18h-33l8,18c-11.188,2.797-22.503,11.298-28.727,24.136m1.3858,9.1785c15.59-38.31,58.55-37.75,73.34,1.68m128.5-252.81c-25.362-6.5224-50.303-5.4577-75,0m-159.25,323.06v-98.75c13.75-0.5,32.75,15.5,32,21.75l1,84m104.75-6.25,0-98.75c-11-0.25-32,15.75-32,21.75l-1,84m55-18,0-150m-182,148,0-149m117.25-212.31-1.5,12.625m-52.37-12.94l1.5,12.625m-0.76,190.62-0.12,20.38m51.87-20.25,0.13,20.25m-57.658-21.559,31.173-32.502,32.423,33.045m-60.458-5.2138-0.12132-152.95m57.44-2.1213,0.22855,155.5m13.92-191.74,18.39,40.48m-104.83-38.712-15.56,37.122m-105.94,6.65c25.362-6.5224,50.303-5.4577,75,0" stroke="#000" stroke-linecap="round" stroke-miterlimit="4" stroke-dasharray="none" stroke-width="3" fill="none"/>
  <path d="m339.5,312.38-10,5,0,30,10,0z" fill="#000"/>
  <path stroke-linejoin="round" d="m153.44,80.926c0,2.0258-1.7016,3.6681-3.8007,3.6681s-3.8007-1.6423-3.8007-3.6681,1.7016-3.6681,3.8007-3.6681,3.8007,1.6423,3.8007,3.6681z" transform="matrix(1.1531976,0,0,1.1948795,21.782169,156.24281)" stroke-dashoffset="0" stroke="#000" stroke-linecap="round" stroke-miterlimit="4" stroke-dasharray="none" stroke-width="1.70379007" fill="#FFF"/>
  <path d="m227,380c-21-30-51-20-63,1v87c20.5,4.1114,42.5,3.8873,63,0z" fill="#000"/>
  <path stroke-linejoin="round" d="m176,370,0,34m39-34,0.24999,33.75m-20.25-39.75v40m-24-29,49,0m-57,15,65,0" stroke="#FFF" stroke-linecap="round" stroke-miterlimit="4" stroke-dasharray="none" stroke-width="4" fill="none"/>
  <path stroke-linejoin="round" d="m309.25,147.69,5,0,0,12.625" stroke="#000" stroke-linecap="round" stroke-miterlimit="4" stroke-dasharray="none" stroke-width="4" fill="none"/>
  <path stroke-linejoin="round" d="m326.77,219.62-4.4453,0,0-16.262" stroke="#000" stroke-linecap="round" stroke-miterlimit="4" stroke-dasharray="none" stroke-width="2.03243184" fill="none"/>
  <path stroke-linejoin="round" d="m323.21,203.79,4.4453,0,0,14.665" stroke="#000" stroke-linecap="round" stroke-miterlimit="4" stroke-dasharray="none" stroke-width="4.06486368" fill="none"/>
 </g>
</svg>
